<svg xmlns="http://www.w3.org/2000/svg" width="44.489" height="42" viewBox="0 0 44.489 42"><defs><style>.a{fill:#0071b7;}.b,.d{fill:#fff;}.c{fill:#f5aa4b;}.d{font-size:11px;font-family:Cairo-Bold, Cairo;font-weight:700;}.e,.f{stroke:none;}.f{fill:#fff;}</style></defs><g transform="translate(-402 -64)"><g transform="translate(-180 1)"><g class="a" transform="translate(582 65)"><path class="e" d="M 20 39.5 C 17.36730003356934 39.5 14.8136100769043 38.98448944091797 12.40987968444824 37.96780014038086 C 10.08788967132568 36.98567962646484 8.002429962158203 35.57958984375 6.211420059204102 33.78858184814453 C 4.42041015625 31.99757957458496 3.014319896697998 29.9121208190918 2.03220009803772 27.59012985229492 C 1.015509963035583 25.1863899230957 0.5 22.63269996643066 0.5 20 C 0.5 17.36730003356934 1.015509963035583 14.8136100769043 2.03220009803772 12.40987968444824 C 3.014319896697998 10.08788967132568 4.42041015625 8.002429962158203 6.211420059204102 6.211420059204102 C 8.002429962158203 4.42041015625 10.08788967132568 3.014319896697998 12.40987968444824 2.03220009803772 C 14.8136100769043 1.015509963035583 17.36730003356934 0.5 20 0.5 C 22.63269996643066 0.5 25.1863899230957 1.015509963035583 27.59012985229492 2.03220009803772 C 29.9121208190918 3.014319896697998 31.99757957458496 4.42041015625 33.78858184814453 6.211420059204102 C 35.57958984375 8.002429962158203 36.98567962646484 10.08788967132568 37.96780014038086 12.40987968444824 C 38.98448944091797 14.8136100769043 39.5 17.36730003356934 39.5 20 C 39.5 22.63269996643066 38.98448944091797 25.1863899230957 37.96780014038086 27.59012985229492 C 36.98567962646484 29.9121208190918 35.57958984375 31.99757957458496 33.78858184814453 33.78858184814453 C 31.99757957458496 35.57958984375 29.9121208190918 36.98567962646484 27.59012985229492 37.96780014038086 C 25.1863899230957 38.98448944091797 22.63269996643066 39.5 20 39.5 Z"/><path class="f" d="M 20 1 C 17.4345703125 1 14.94642066955566 1.502220153808594 12.60465049743652 2.492698669433594 C 10.34226036071777 3.449611663818359 8.310220718383789 4.819721221923828 6.564968109130859 6.564968109130859 C 4.819721221923828 8.310220718383789 3.449611663818359 10.34226036071777 2.492698669433594 12.60465049743652 C 1.502220153808594 14.94642066955566 1 17.4345703125 1 20 C 1 22.5654296875 1.502220153808594 25.05358123779297 2.492698669433594 27.39535140991211 C 3.449611663818359 29.65773963928223 4.819721221923828 31.68978118896484 6.564968109130859 33.43502807617188 C 8.310220718383789 35.18027877807617 10.34226036071777 36.55038833618164 12.60465049743652 37.50730133056641 C 14.94642066955566 38.49777984619141 17.4345703125 39 20 39 C 22.5654296875 39 25.05358123779297 38.49777984619141 27.39535140991211 37.50730133056641 C 29.65773963928223 36.55038833618164 31.68978118896484 35.18027877807617 33.43502807617188 33.43502807617188 C 35.18027877807617 31.68978118896484 36.55038833618164 29.65773963928223 37.50730133056641 27.39535140991211 C 38.49777984619141 25.05358123779297 39 22.5654296875 39 20 C 39 17.4345703125 38.49777984619141 14.94642066955566 37.50730133056641 12.60465049743652 C 36.55038833618164 10.34226036071777 35.18027877807617 8.310220718383789 33.43502807617188 6.564968109130859 C 31.68978118896484 4.819721221923828 29.65773963928223 3.449611663818359 27.39535140991211 2.492698669433594 C 25.05358123779297 1.502220153808594 22.5654296875 1 20 1 M 20 0 C 31.04570007324219 0 40 8.954299926757812 40 20 C 40 31.04570007324219 31.04570007324219 40 20 40 C 8.954299926757812 40 0 31.04570007324219 0 20 C 0 8.954299926757812 8.954299926757812 0 20 0 Z"/></g><g transform="translate(593.283 74.09)"><path class="b" d="M19.1,28.336a.706.706,0,0,0-.693.556,1.367,1.367,0,0,1-.273.594,1.031,1.031,0,0,1-.878.322,1.048,1.048,0,0,1-.878-.322,1.367,1.367,0,0,1-.273-.594.706.706,0,0,0-.693-.556h0a.711.711,0,0,0-.693.867,2.437,2.437,0,0,0,2.536,2.023A2.432,2.432,0,0,0,19.791,29.2a.714.714,0,0,0-.693-.867Z" transform="translate(-8.553 -9.405)"/><path class="b" d="M23.99,20.09c-.84-1.107-2.492-1.756-2.492-6.714,0-5.088-2.247-7.134-4.341-7.625-.2-.049-.338-.115-.338-.322V5.272A1.338,1.338,0,0,0,15.509,3.93h-.033a1.338,1.338,0,0,0-1.309,1.342V5.43c0,.2-.142.273-.338.322-2.1.5-4.341,2.536-4.341,7.625,0,4.958-1.653,5.6-2.492,6.714a1.083,1.083,0,0,0,.867,1.734H23.139A1.083,1.083,0,0,0,23.99,20.09Zm-2.127.316H9.144a.239.239,0,0,1-.18-.4,6.607,6.607,0,0,0,1.145-1.822,12.359,12.359,0,0,0,.78-4.81,8.364,8.364,0,0,1,1.14-4.734A3.5,3.5,0,0,1,14.14,7.137a1.911,1.911,0,0,0,1.014-.573.431.431,0,0,1,.649-.011,1.976,1.976,0,0,0,1.025.584A3.5,3.5,0,0,1,18.94,8.643a8.364,8.364,0,0,1,1.14,4.734,12.359,12.359,0,0,0,.78,4.81,6.683,6.683,0,0,0,1.173,1.849A.225.225,0,0,1,21.863,20.407Z" transform="translate(-6.775 -3.93)"/></g></g><path class="c" d="M8.489,0A8.489,8.489,0,1,1,0,8.489,8.489,8.489,0,0,1,8.489,0Z" transform="translate(429.511 65.511)"/><text class="d" transform="translate(435 78)"><tspan x="0" y="0">2</tspan></text></g></svg>