<svg xmlns="http://www.w3.org/2000/svg" width="60" height="60" viewBox="0 0 60 60"><defs><style>.a{fill:#fff;}.b{fill:#5795bc;}</style></defs><g transform="translate(-661 -502)"><g transform="translate(661 502)"><circle class="a" cx="30" cy="30" r="30" transform="translate(0)"/></g><g transform="translate(676.169 518.398)"><path class="b" d="M13.594,27.2A13.594,13.594,0,1,1,20.927,2.157a.927.927,0,0,1-1,1.561A11.738,11.738,0,1,0,25.334,13.6c0-.387-.019-.77-.054-1.147a.927.927,0,1,1,1.845-.179q.063.654.063,1.326A13.61,13.61,0,0,1,13.594,27.2Zm0,0" transform="translate(0)"/><path class="b" d="M155.827,36.8a.92.92,0,0,1-.655-.272l-5.561-5.561a.927.927,0,1,1,1.311-1.311l4.906,4.906,12.938-12.938a.927.927,0,0,1,1.311,1.311L156.484,36.525a.929.929,0,0,1-.656.271Zm0,0" transform="translate(-140.689 -20.103)"/></g></g></svg>