<svg xmlns="http://www.w3.org/2000/svg" width="60" height="60" viewBox="0 0 60 60"><defs><style>.a{fill:#fff;}.b{fill:#5795bc;}</style></defs><g transform="translate(-661 -502)"><g transform="translate(661 502)"><circle class="a" cx="30" cy="30" r="30" transform="translate(0)"/></g><g transform="translate(673.599 511.109)"><path class="b" d="M34.8,19.217a.717.717,0,0,1-.717.717H28.142L23.358,30.868a.715.715,0,0,1-.657.43H4.765a.717.717,0,1,1,0-1.435H22.231L27.015,18.93a.716.716,0,0,1,.657-.43h6.412A.717.717,0,0,1,34.8,19.217ZM10.332,32.3a2.4,2.4,0,1,0,2.4,2.4A2.4,2.4,0,0,0,10.332,32.3Zm8.524,0a2.4,2.4,0,1,0,2.4,2.4A2.4,2.4,0,0,0,18.856,32.3ZM4.338,27.376.116,11.716a3.348,3.348,0,0,1,2.361-4.1L9.457,5.734a3.3,3.3,0,0,1,2.233.211,3.356,3.356,0,0,1,2.981-1.234l7.184.81a3.346,3.346,0,0,1,2.95,3.7L22.989,25.338a3.348,3.348,0,0,1-3.316,2.97,3.484,3.484,0,0,1-.384-.022L15.7,27.747c-.093.032-.184.078-.278.1L8.439,29.732a3.341,3.341,0,0,1-4.1-2.356ZM12.85,6.8a3.227,3.227,0,0,1,.709,1.294l.283,1.053a1.471,1.471,0,1,1,1.107,2.2,1.457,1.457,0,0,1-.565-.185l.522,1.944a1.452,1.452,0,0,1,.745,2.757l1.823,6.765a1.485,1.485,0,1,1,.371,1.541,3.331,3.331,0,0,1-.4,2.122c-.05.089-.116.162-.173.244l2.2.329a1.883,1.883,0,0,0,1.38-.408,1.906,1.906,0,0,0,.708-1.281L23.379,9.06a1.906,1.906,0,0,0-1.686-2.113l-7.185-.81A1.911,1.911,0,0,0,12.85,6.8ZM1.5,11.347,5.722,27.005a1.942,1.942,0,0,0,2.344,1.346l6.982-1.881a1.91,1.91,0,0,0,1.35-2.346L12.178,8.467a1.89,1.89,0,0,0-.615-.947.714.714,0,0,1-.172-.127,1.871,1.871,0,0,0-1.055-.34,2.045,2.045,0,0,0-.5.067L2.852,9A1.916,1.916,0,0,0,1.5,11.347Zm3.673,2.342a1.473,1.473,0,1,0-1.8-1.042A1.473,1.473,0,0,0,5.172,13.689Zm5.007-1.351A1.475,1.475,0,1,0,8.372,11.3,1.477,1.477,0,0,0,10.179,12.338Zm-3.9,5.446a1.474,1.474,0,1,0-1.806-1.04A1.473,1.473,0,0,0,6.278,17.784Zm4.239-4.2a1.475,1.475,0,1,0,1.806,1.039A1.476,1.476,0,0,0,10.516,13.589ZM7.382,21.878a1.473,1.473,0,1,0-1.806-1.04A1.471,1.471,0,0,0,7.382,21.878Zm4.237-4.191a1.473,1.473,0,1,0,1.806,1.04A1.474,1.474,0,0,0,11.619,17.687Zm-3.9,5.445a1.474,1.474,0,1,0,1.806,1.04A1.474,1.474,0,0,0,7.719,23.132Zm5.006-1.352a1.475,1.475,0,1,0,1.806,1.042A1.478,1.478,0,0,0,12.725,21.78Zm7.377-9.85a1.473,1.473,0,1,0-1.3-1.63A1.476,1.476,0,0,0,20.1,11.931Zm-.476,4.214a1.473,1.473,0,1,0-1.3-1.628A1.476,1.476,0,0,0,19.626,16.145Zm-.474,4.216a1.472,1.472,0,1,0-1.3-1.629A1.476,1.476,0,0,0,19.153,20.36Z" transform="translate(0 0)"/></g></g></svg>