<svg xmlns="http://www.w3.org/2000/svg" width="60" height="60" viewBox="0 0 60 60"><defs><style>.a{fill:#fff;}.b{fill:#5795bc;}</style></defs><g transform="translate(-661 -502)"><g transform="translate(661 502)"><circle class="a" cx="30" cy="30" r="30" transform="translate(0)"/></g><g transform="translate(673.732 514.732)"><path class="b" d="M23.215,9.563V6.509A.509.509,0,0,0,22.706,6h-11.2A.509.509,0,0,0,11,6.509V9.563a.509.509,0,0,0,.509.509h11.2A.509.509,0,0,0,23.215,9.563ZM22.2,9.054H12.018V7.018H22.2Z" transform="translate(-4.42 -1.964)"/><path class="b" d="M7,17.509v6.107a.509.509,0,0,0,.509.509h6.107a.509.509,0,0,0,.509-.509v-2.93L13.107,21.7v1.4H8.018V18.018h4.457L13.493,17H7.509A.509.509,0,0,0,7,17.509Z" transform="translate(-2.455 -7.366)"/><path class="b" d="M16.891,17.293,13.18,21l-1.167-1.167-.72.72,1.527,1.527a.509.509,0,0,0,.72,0l4.072-4.072Z" transform="translate(-4.563 -7.51)"/><path class="b" d="M7,40.616a.509.509,0,0,0,.509.509h6.107a.509.509,0,0,0,.509-.509v-2.93L13.107,38.7v1.4H8.018V35.018h4.457L13.493,34H7.509A.509.509,0,0,0,7,34.509Z" transform="translate(-2.455 -15.714)"/><path class="b" d="M12.013,36.838l-.72.72,1.527,1.527a.509.509,0,0,0,.72,0l4.072-4.072-.72-.72L13.18,38Z" transform="translate(-4.563 -15.858)"/><path class="b" d="M26,24h6.616v1.018H26Z" transform="translate(-11.785 -10.803)"/><path class="b" d="M26,19h6.616v1.018H26Z" transform="translate(-11.785 -8.348)"/><path class="b" d="M26,36h3.054v1.018H26Z" transform="translate(-11.785 -16.696)"/><path class="b" d="M26,41h3.054v1.018H26Z" transform="translate(-11.785 -19.151)"/><path class="b" d="M3.018,31.519V3.018h19.34V13.887q.515-.18,1.018-.393V2.509A.509.509,0,0,0,22.867,2H2.509A.509.509,0,0,0,2,2.509V32.028a.509.509,0,0,0,.509.509H22.867a.5.5,0,0,0,.157-.032,12.368,12.368,0,0,1-1.375-.986Z"/><path class="b" d="M47.8,27.039a17.77,17.77,0,0,1-6.433-1.979.509.509,0,0,0-.478,0,17.77,17.77,0,0,1-6.433,1.979.509.509,0,0,0-.453.506v6.028a11.1,11.1,0,0,0,6.929,10.219.509.509,0,0,0,.392,0A11.1,11.1,0,0,0,48.25,33.573V27.545a.509.509,0,0,0-.453-.506Zm-.564,6.534a10.081,10.081,0,0,1-6.107,9.2,10.081,10.081,0,0,1-6.107-9.2V27.995a18.771,18.771,0,0,0,6.107-1.912,18.767,18.767,0,0,0,6.107,1.912Z" transform="translate(-15.714 -11.294)"/><path class="b" d="M39.013,38.347l-.72.72,3.054,3.054a.509.509,0,0,0,.72,0l6.107-6.107-.72-.72-5.747,5.748Z" transform="translate(-17.822 -16.349)"/><path class="b" d="M25,55h3.563v1.018H25Z" transform="translate(-11.294 -26.026)"/><path class="b" d="M16,51h8.143v1.018H16Z" transform="translate(-6.875 -24.062)"/></g></g></svg>