<svg xmlns="http://www.w3.org/2000/svg" width="60" height="60" viewBox="0 0 60 60"><defs><style>.a{fill:#fff;}.b{fill:#5795bc;}</style></defs><g transform="translate(-661 -502)"><g transform="translate(661 502)"><circle class="a" cx="30" cy="30" r="30" transform="translate(0)"/></g><g transform="translate(679.228 516.646)"><g transform="translate(0)"><path class="b" d="M79.031,0H56.512A.512.512,0,0,0,56,.512V30.2a.512.512,0,0,0,.512.512H72.89a.512.512,0,0,0,.362-.15l6.142-6.142a.512.512,0,0,0,.15-.362V.512A.512.512,0,0,0,79.031,0ZM73.4,28.961V24.567H77.8Zm5.118-5.418H72.89a.512.512,0,0,0-.512.512v5.63H57.024V1.024h21.5Z" transform="translate(-56)"/></g><g transform="translate(3.071 14.331)"><g transform="translate(0)"><path class="b" d="M106.559,224h-2.047a.512.512,0,1,0,0,1.024h2.047a.512.512,0,1,0,0-1.024Z" transform="translate(-104 -224)"/></g></g><g transform="translate(7.165 14.331)"><path class="b" d="M180.8,224H168.512a.512.512,0,0,0,0,1.024H180.8a.512.512,0,0,0,0-1.024Z" transform="translate(-168 -224)"/></g><g transform="translate(3.071 17.401)"><g transform="translate(0)"><path class="b" d="M106.559,272h-2.047a.512.512,0,1,0,0,1.024h2.047a.512.512,0,1,0,0-1.024Z" transform="translate(-104 -272)"/></g></g><g transform="translate(7.165 17.401)"><path class="b" d="M180.8,272H168.512a.512.512,0,1,0,0,1.024H180.8a.512.512,0,1,0,0-1.024Z" transform="translate(-168 -272)"/></g><g transform="translate(3.071 20.472)"><g transform="translate(0)"><path class="b" d="M106.559,320h-2.047a.512.512,0,1,0,0,1.024h2.047a.512.512,0,1,0,0-1.024Z" transform="translate(-104 -320)"/></g></g><g transform="translate(7.165 20.472)"><path class="b" d="M180.8,320H168.512a.512.512,0,1,0,0,1.024H180.8a.512.512,0,1,0,0-1.024Z" transform="translate(-168 -320)"/></g><g transform="translate(3.071 3.071)"><g transform="translate(0)"><path class="b" d="M110.116,55.439l-1.81-1.809,1.81-1.809a.512.512,0,1,0-.711-.736l-.013.013-1.81,1.809-1.835-1.835h.812a1.535,1.535,0,1,0,0-3.071h-2.047a.512.512,0,0,0-.512.512v5.63a.512.512,0,1,0,1.024,0V51.795l1.835,1.835-1.81,1.809a.512.512,0,0,0,.711.736l.013-.013,1.81-1.809,1.81,1.809a.512.512,0,1,0,.736-.711Zm-5.092-6.416h1.535a.512.512,0,1,1,0,1.024h-1.535Z" transform="translate(-104 -48)"/></g></g></g></g></svg>