<svg xmlns="http://www.w3.org/2000/svg" width="44.489" height="42" viewBox="0 0 44.489 42"><defs><style>.a,.d{fill:#fff;}.b{fill:#0071b7;}.c{fill:#f5aa4b;}.d{font-size:11px;font-family:Cairo-Bold, Cairo;font-weight:700;}</style></defs><g transform="translate(-402 -64)"><g transform="translate(-180 1)"><path class="a" d="M20,0A20,20,0,1,1,0,20,20,20,0,0,1,20,0Z" transform="translate(582 65)"/><g transform="translate(593.283 74.09)"><path class="b" d="M19.1,28.336a.706.706,0,0,0-.693.556,1.367,1.367,0,0,1-.273.594,1.031,1.031,0,0,1-.878.322,1.048,1.048,0,0,1-.878-.322,1.367,1.367,0,0,1-.273-.594.706.706,0,0,0-.693-.556h0a.711.711,0,0,0-.693.867,2.437,2.437,0,0,0,2.536,2.023A2.432,2.432,0,0,0,19.791,29.2a.714.714,0,0,0-.693-.867Z" transform="translate(-8.553 -9.405)"/><path class="b" d="M23.99,20.09c-.84-1.107-2.492-1.756-2.492-6.714,0-5.088-2.247-7.134-4.341-7.625-.2-.049-.338-.115-.338-.322V5.272A1.338,1.338,0,0,0,15.509,3.93h-.033a1.338,1.338,0,0,0-1.309,1.342V5.43c0,.2-.142.273-.338.322-2.1.5-4.341,2.536-4.341,7.625,0,4.958-1.653,5.6-2.492,6.714a1.083,1.083,0,0,0,.867,1.734H23.139A1.083,1.083,0,0,0,23.99,20.09Zm-2.127.316H9.144a.239.239,0,0,1-.18-.4,6.607,6.607,0,0,0,1.145-1.822,12.359,12.359,0,0,0,.78-4.81,8.364,8.364,0,0,1,1.14-4.734A3.5,3.5,0,0,1,14.14,7.137a1.911,1.911,0,0,0,1.014-.573.431.431,0,0,1,.649-.011,1.976,1.976,0,0,0,1.025.584A3.5,3.5,0,0,1,18.94,8.643a8.364,8.364,0,0,1,1.14,4.734,12.359,12.359,0,0,0,.78,4.81,6.683,6.683,0,0,0,1.173,1.849A.225.225,0,0,1,21.863,20.407Z" transform="translate(-6.775 -3.93)"/></g></g><path class="c" d="M8.489,0A8.489,8.489,0,1,1,0,8.489,8.489,8.489,0,0,1,8.489,0Z" transform="translate(429.511 65.511)"/><text class="d" transform="translate(435 78)"><tspan x="0" y="0">2</tspan></text></g></svg>