<svg xmlns="http://www.w3.org/2000/svg" width="40" height="40" viewBox="0 0 40 40"><defs><style>.a{fill:#fff;}.b{fill:#0071b7;}</style></defs><g transform="translate(-402 -66)"><g transform="translate(-180 1)"><path class="a" d="M20,0A20,20,0,1,1,0,20,20,20,0,0,1,20,0Z" transform="translate(582 65)"/><g transform="translate(592.485 75.484)"><g transform="translate(0)"><path class="b" d="M16.243,12.3a9.478,9.478,0,0,0-3.616-2.268,5.5,5.5,0,1,0-6.225,0,9.53,9.53,0,0,0-6.4,9H1.487a8.028,8.028,0,0,1,16.056,0h1.487A9.453,9.453,0,0,0,16.243,12.3ZM9.515,9.515A4.014,4.014,0,1,1,13.529,5.5,4.019,4.019,0,0,1,9.515,9.515Z" transform="translate(0)"/></g></g></g></g></svg>